<svg data-v-423bf9ae="" xmlns="http://www.w3.org/2000/svg" viewBox="0 0 850.6203081854261 163" class="iconAbove"><!----><!----><!----><g data-v-423bf9ae="" id="d262e65e-bac6-4ad1-91e1-39df4a678971" fill="white" transform="matrix(4.538578147987466,0,0,4.538578147987466,-3.540085950321725,85.16338638333357)"><path d="M5.04 14.35L5.04 13.06L3.70 13.06L3.70 5.87L5.04 5.87L5.04 4.58L0.78 4.58L0.78 5.87L2.11 5.87L2.11 13.06L0.78 13.06L0.78 14.35ZM9.20 14.52C10.95 14.52 12.08 13.58 12.08 12.18C12.08 11.00 11.37 10.30 9.77 10.07L9.10 9.98C8.33 9.86 7.98 9.60 7.98 9.04C7.98 8.50 8.37 8.13 9.21 8.13C10.00 8.13 10.61 8.51 10.99 8.96L11.93 8.06C11.27 7.34 10.53 6.90 9.21 6.90C7.62 6.90 6.51 7.73 6.51 9.14C6.51 10.49 7.42 11.13 8.90 11.31L9.58 11.40C10.33 11.49 10.61 11.84 10.61 12.31C10.61 12.92 10.16 13.29 9.28 13.29C8.41 13.29 7.76 12.89 7.22 12.25L6.24 13.15C6.93 14 7.83 14.52 9.20 14.52ZM16.66 14.52C18.69 14.52 20.01 13.03 20.01 10.71C20.01 8.39 18.69 6.90 16.66 6.90C14.63 6.90 13.31 8.39 13.31 10.71C13.31 13.03 14.63 14.52 16.66 14.52ZM16.66 13.26C15.62 13.26 14.92 12.61 14.92 11.33L14.92 10.09C14.92 8.81 15.62 8.16 16.66 8.16C17.70 8.16 18.40 8.81 18.40 10.09L18.40 11.33C18.40 12.61 17.70 13.26 16.66 13.26ZM23.23 14.35L23.23 9.46C23.23 8.62 23.97 8.22 24.72 8.22C25.62 8.22 26.05 8.78 26.05 9.91L26.05 14.35L27.58 14.35L27.58 9.46C27.58 8.62 28.29 8.22 29.06 8.22C29.99 8.22 30.41 8.79 30.41 9.91L30.41 14.35L31.93 14.35L31.93 9.73C31.93 7.94 31.08 6.90 29.64 6.90C28.46 6.90 27.71 7.57 27.44 8.39L27.40 8.39C27.05 7.38 26.22 6.90 25.24 6.90C24.14 6.90 23.59 7.52 23.30 8.27L23.23 8.27L23.23 7.07L21.70 7.07L21.70 14.35ZM36.90 14.52C38.93 14.52 40.25 13.03 40.25 10.71C40.25 8.39 38.93 6.90 36.90 6.90C34.87 6.90 33.56 8.39 33.56 10.71C33.56 13.03 34.87 14.52 36.90 14.52ZM36.90 13.26C35.87 13.26 35.17 12.61 35.17 11.33L35.17 10.09C35.17 8.81 35.87 8.16 36.90 8.16C37.94 8.16 38.64 8.81 38.64 10.09L38.64 11.33C38.64 12.61 37.94 13.26 36.90 13.26ZM43.47 14.35L43.47 9.70C43.47 8.95 44.14 8.54 45.35 8.54L45.95 8.54L45.95 7.07L45.54 7.07C44.38 7.07 43.75 7.73 43.54 8.47L43.47 8.47L43.47 7.07L41.94 7.07L41.94 14.35ZM47.31 17.15L48.83 17.15L48.83 13.15L48.90 13.15C49.21 14 49.98 14.52 50.95 14.52C52.78 14.52 53.84 13.10 53.84 10.71C53.84 8.32 52.78 6.90 50.95 6.90C49.98 6.90 49.21 7.41 48.90 8.27L48.83 8.27L48.83 7.07L47.31 7.07ZM50.48 13.20C49.56 13.20 48.83 12.70 48.83 11.96L48.83 9.46C48.83 8.72 49.56 8.22 50.48 8.22C51.53 8.22 52.23 8.96 52.23 10.08L52.23 11.34C52.23 12.46 51.53 13.20 50.48 13.20ZM55.59 14.35L57.12 14.35L57.12 9.46C57.12 8.62 57.90 8.22 58.70 8.22C59.64 8.22 60.07 8.79 60.07 9.91L60.07 14.35L61.60 14.35L61.60 9.73C61.60 7.94 60.72 6.90 59.23 6.90C58.11 6.90 57.50 7.49 57.19 8.27L57.12 8.27L57.12 3.99L55.59 3.99ZM64.48 5.77C65.11 5.77 65.38 5.43 65.38 4.97L65.38 4.73C65.38 4.27 65.11 3.93 64.48 3.93C63.85 3.93 63.57 4.27 63.57 4.73L63.57 4.97C63.57 5.43 63.85 5.77 64.48 5.77ZM63.71 14.35L65.24 14.35L65.24 7.07L63.71 7.07ZM70.24 14.52C71.64 14.52 72.63 13.86 73.11 12.67L71.95 12.05C71.64 12.78 71.12 13.26 70.24 13.26C69.12 13.26 68.54 12.49 68.54 11.37L68.54 10.07C68.54 8.95 69.12 8.18 70.24 8.18C71.06 8.18 71.58 8.61 71.79 9.28L73.05 8.69C72.62 7.62 71.69 6.90 70.24 6.90C68.14 6.90 66.93 8.39 66.93 10.71C66.93 13.03 68.14 14.52 70.24 14.52ZM83.54 14.35L83.54 12.95L79.56 12.95L79.56 4.58L77.98 4.58L77.98 14.35ZM91.25 14.35L91.25 13.10L90.48 13.10L90.48 9.45C90.48 7.83 89.43 6.90 87.56 6.90C86.14 6.90 85.29 7.50 84.81 8.32L85.72 9.14C86.09 8.57 86.60 8.15 87.46 8.15C88.48 8.15 88.96 8.67 88.96 9.55L88.96 10.16L87.64 10.16C85.61 10.16 84.53 10.91 84.53 12.35C84.53 13.66 85.39 14.52 86.88 14.52C87.95 14.52 88.73 14.04 89.01 13.13L89.08 13.13C89.18 13.85 89.60 14.35 90.40 14.35ZM87.32 13.36C86.56 13.36 86.09 13.02 86.09 12.38L86.09 12.12C86.09 11.49 86.60 11.14 87.67 11.14L88.96 11.14L88.96 12.19C88.96 12.91 88.26 13.36 87.32 13.36ZM95.66 11.35L95.20 12.94L95.13 12.94L94.71 11.35L93.25 7.07L91.73 7.07L94.37 14.67L93.95 15.90L92.72 15.90L92.72 17.15L93.60 17.15C94.74 17.15 95.17 16.77 95.52 15.79L98.59 7.07L97.12 7.07ZM102.62 14.52C104.65 14.52 105.97 13.03 105.97 10.71C105.97 8.39 104.65 6.90 102.62 6.90C100.59 6.90 99.27 8.39 99.27 10.71C99.27 13.03 100.59 14.52 102.62 14.52ZM102.62 13.26C101.58 13.26 100.88 12.61 100.88 11.33L100.88 10.09C100.88 8.81 101.58 8.16 102.62 8.16C103.66 8.16 104.36 8.81 104.36 10.09L104.36 11.33C104.36 12.61 103.66 13.26 102.62 13.26ZM112.07 14.35L113.60 14.35L113.60 7.07L112.07 7.07L112.07 11.94C112.07 12.80 111.30 13.20 110.52 13.20C109.58 13.20 109.12 12.61 109.12 11.51L109.12 7.07L107.59 7.07L107.59 11.70C107.59 13.50 108.47 14.52 109.97 14.52C111.17 14.52 111.75 13.86 112.01 13.15L112.07 13.15ZM119.13 14.35L119.13 13.10L117.71 13.10L117.71 8.32L119.24 8.32L119.24 7.07L117.71 7.07L117.71 5.08L116.34 5.08L116.34 6.36C116.34 6.86 116.17 7.07 115.67 7.07L115.05 7.07L115.05 8.32L116.19 8.32L116.19 12.77C116.19 13.76 116.75 14.35 117.80 14.35ZM127.97 14.52C129.67 14.52 130.84 13.66 131.50 12.25L130.23 11.48C129.88 12.43 129.14 13.10 127.97 13.10C126.48 13.10 125.55 12.01 125.55 10.21L125.55 8.72C125.55 6.92 126.48 5.82 127.97 5.82C129.11 5.82 129.79 6.43 130.13 7.35L131.46 6.62C130.80 5.17 129.67 4.41 127.97 4.41C125.43 4.41 123.87 6.19 123.87 9.46C123.87 12.74 125.43 14.52 127.97 14.52ZM135.93 14.52C137.96 14.52 139.27 13.03 139.27 10.71C139.27 8.39 137.96 6.90 135.93 6.90C133.90 6.90 132.58 8.39 132.58 10.71C132.58 13.03 133.90 14.52 135.93 14.52ZM135.93 13.26C134.89 13.26 134.19 12.61 134.19 11.33L134.19 10.09C134.19 8.81 134.89 8.16 135.93 8.16C136.96 8.16 137.66 8.81 137.66 10.09L137.66 11.33C137.66 12.61 136.96 13.26 135.93 13.26ZM142.49 14.35L142.49 9.46C142.49 8.62 143.23 8.22 143.99 8.22C144.89 8.22 145.32 8.78 145.32 9.91L145.32 14.35L146.85 14.35L146.85 9.46C146.85 8.62 147.56 8.22 148.33 8.22C149.25 8.22 149.67 8.79 149.67 9.91L149.67 14.35L151.20 14.35L151.20 9.73C151.20 7.94 150.35 6.90 148.90 6.90C147.73 6.90 146.97 7.57 146.71 8.39L146.66 8.39C146.31 7.38 145.49 6.90 144.51 6.90C143.40 6.90 142.86 7.52 142.56 8.27L142.49 8.27L142.49 7.07L140.97 7.07L140.97 14.35ZM153.31 17.15L154.84 17.15L154.84 13.15L154.91 13.15C155.22 14 155.99 14.52 156.95 14.52C158.79 14.52 159.85 13.10 159.85 10.71C159.85 8.32 158.79 6.90 156.95 6.90C155.99 6.90 155.22 7.41 154.91 8.27L154.84 8.27L154.84 7.07L153.31 7.07ZM156.49 13.20C155.57 13.20 154.84 12.70 154.84 11.96L154.84 9.46C154.84 8.72 155.57 8.22 156.49 8.22C157.54 8.22 158.24 8.96 158.24 10.08L158.24 11.34C158.24 12.46 157.54 13.20 156.49 13.20ZM164.46 14.52C166.49 14.52 167.80 13.03 167.80 10.71C167.80 8.39 166.49 6.90 164.46 6.90C162.43 6.90 161.11 8.39 161.11 10.71C161.11 13.03 162.43 14.52 164.46 14.52ZM164.46 13.26C163.42 13.26 162.72 12.61 162.72 11.33L162.72 10.09C162.72 8.81 163.42 8.16 164.46 8.16C165.49 8.16 166.19 8.81 166.19 10.09L166.19 11.33C166.19 12.61 165.49 13.26 164.46 13.26ZM171.81 14.52C173.56 14.52 174.69 13.58 174.69 12.18C174.69 11.00 173.98 10.30 172.38 10.07L171.71 9.98C170.94 9.86 170.59 9.60 170.59 9.04C170.59 8.50 170.98 8.13 171.82 8.13C172.61 8.13 173.22 8.51 173.60 8.96L174.54 8.06C173.88 7.34 173.14 6.90 171.82 6.90C170.23 6.90 169.12 7.73 169.12 9.14C169.12 10.49 170.03 11.13 171.51 11.31L172.19 11.40C172.94 11.49 173.22 11.84 173.22 12.31C173.22 12.92 172.77 13.29 171.89 13.29C171.02 13.29 170.37 12.89 169.83 12.25L168.85 13.15C169.54 14 170.44 14.52 171.81 14.52ZM179.27 14.52C180.63 14.52 181.69 13.93 182.24 13.05L181.34 12.17C180.92 12.84 180.32 13.26 179.42 13.26C178.19 13.26 177.51 12.46 177.51 11.34L177.51 11.10L182.50 11.10L182.50 10.53C182.50 8.51 181.41 6.90 179.27 6.90C177.20 6.90 175.92 8.39 175.92 10.71C175.92 13.03 177.20 14.52 179.27 14.52ZM179.27 8.09C180.28 8.09 180.89 8.83 180.89 9.95L180.89 10.09L177.51 10.09L177.51 10.00C177.51 8.88 178.22 8.09 179.27 8.09ZM185.72 14.35L185.72 9.70C185.72 8.95 186.40 8.54 187.60 8.54L188.20 8.54L188.20 7.07L187.80 7.07C186.63 7.07 186.00 7.73 185.79 8.47L185.72 8.47L185.72 7.07L184.20 7.07L184.20 14.35Z"></path></g><!----><g data-v-423bf9ae="" id="3f019985-064e-4eff-b4ab-103860e46797" transform="matrix(12.107392543533708,0,0,12.107392543533708,374.41495464470177,-5.8758088118175)" stroke="none" fill="white"><path d="M5.583 4.94l-.454.667a.265.265 0 0 0-.028.245l.05.127a.265.265 0 0 1-.06.283l-.085.085a.68.68 0 1 0 .095.63l.801-.993a7.183 7.183 0 0 1-.319-1.044zM4.45 6.337a.415.415 0 0 1 .427.416.415.415 0 1 1-.83 0 .415.415 0 0 1 .403-.416zM5.988 1.305a6.919 6.919 0 0 0 .037 4.238l.53 1.712a.68.68 0 1 0 .322-.551l-.048-.11a.265.265 0 0 1 .05-.285l.092-.1a.265.265 0 0 0 .064-.238L5.988 1.305zm.292 3.228a.198.198 0 0 1 .204.198.198.198 0 1 1-.397 0 .198.198 0 0 1 .193-.198zm.942 2.334a.415.415 0 0 1 .428.415.415.415 0 1 1-.83 0 .415.415 0 0 1 .402-.415zM4.535 4.812l-.64.294.111.24-.24.11-.11-.24-.241.11.22.481-.24.11-.22-.48-.241.11.11.24-.24.11-.11-.24-.241.11.22.482-.24.11-.22-.48-.241.11.11.24-.24.11-.11-.24-.24.11.22.481-.24.11-.221-.48-.24.11.11.24-.241.11-.11-.24-.24.11.33.722 3.713-1.704zM2.357 4.04l-.684.6 1.469.52 1.035-.475-.323-.114-.089.25-.25-.089.09-.25-.25-.087-.177.498-.25-.089.178-.498-.25-.09-.088.25-.25-.089.089-.25zM4.4.846L4.762.53l.299.794-3.674 3.215-.173-.904.2-.174.173.199.2-.174-.175-.2.2-.174.348.399.199-.175-.349-.398.2-.174.174.2.199-.175-.174-.2.199-.174.348.399.2-.175-.349-.398.2-.174.173.2.2-.175-.175-.2.2-.173.348.398.199-.174-.349-.399.2-.174.174.2.199-.175-.174-.2.199-.173.348.398.2-.174zM3.454 1.323L4.36.529H3.175v.265H2.91V.529h-.264v.53H2.38v-.53h-.264v.265h-.265V.529h-.265v.53h-.264v-.53h-.265v.265H.794V.529H.529v.794z"></path><path d="M6.974 4.491a6.919 6.919 0 0 0 .846-2.836L6.705 3.293z"></path></g><!----></svg>