<svg data-v-fde0c5aa="" xmlns="http://www.w3.org/2000/svg" viewBox="0 0 300 300" class="icon"><!----><defs data-v-fde0c5aa=""><!----></defs><rect data-v-fde0c5aa="" fill="transparent" x="0" y="0" width="300px" height="300px" class="logo-background-square"></rect><!----><defs data-v-fde0c5aa=""><linearGradient data-v-fde0c5aa="" gradientTransform="rotate(25)" id="3f2e731b-17e4-4ad2-be94-e377d0236577" x1="0%" y1="0%" x2="100%" y2="0%"><stop data-v-fde0c5aa="" offset="0%" stop-color="#920DE9" stop-opacity="1"></stop><stop data-v-fde0c5aa="" offset="100%" stop-color="#1536F1" stop-opacity="1"></stop></linearGradient></defs><g data-v-fde0c5aa="" id="1b1068ef-6d5c-42de-8770-37723c0c23ab" fill="url(#3f2e731b-17e4-4ad2-be94-e377d0236577)" stroke="none" transform="matrix(29.595848439749062,0,0,29.595848439749062,25.054546511809168,24.343796641081955)"><path d="M5.583 4.94l-.454.667a.265.265 0 0 0-.028.245l.05.127a.265.265 0 0 1-.06.283l-.085.085a.68.68 0 1 0 .095.63l.801-.993a7.183 7.183 0 0 1-.319-1.044zM4.45 6.337a.415.415 0 0 1 .427.416.415.415 0 1 1-.83 0 .415.415 0 0 1 .403-.416zM5.988 1.305a6.919 6.919 0 0 0 .037 4.238l.53 1.712a.68.68 0 1 0 .322-.551l-.048-.11a.265.265 0 0 1 .05-.285l.092-.1a.265.265 0 0 0 .064-.238L5.988 1.305zm.292 3.228a.198.198 0 0 1 .204.198.198.198 0 1 1-.397 0 .198.198 0 0 1 .193-.198zm.942 2.334a.415.415 0 0 1 .428.415.415.415 0 1 1-.83 0 .415.415 0 0 1 .402-.415zM4.535 4.812l-.64.294.111.24-.24.11-.11-.24-.241.11.22.481-.24.11-.22-.48-.241.11.11.24-.24.11-.11-.24-.241.11.22.482-.24.11-.22-.48-.241.11.11.24-.24.11-.11-.24-.24.11.22.481-.24.11-.221-.48-.24.11.11.24-.241.11-.11-.24-.24.11.33.722 3.713-1.704zM2.357 4.04l-.684.6 1.469.52 1.035-.475-.323-.114-.089.25-.25-.089.09-.25-.25-.087-.177.498-.25-.089.178-.498-.25-.09-.088.25-.25-.089.089-.25zM4.4.846L4.762.53l.299.794-3.674 3.215-.173-.904.2-.174.173.199.2-.174-.175-.2.2-.174.348.399.199-.175-.349-.398.2-.174.174.2.199-.175-.174-.2.199-.174.348.399.2-.175-.349-.398.2-.174.173.2.2-.175-.175-.2.2-.173.348.398.199-.174-.349-.399.2-.174.174.2.199-.175-.174-.2.199-.173.348.398.2-.174zM3.454 1.323L4.36.529H3.175v.265H2.91V.529h-.264v.53H2.38v-.53h-.264v.265h-.265V.529h-.265v.53h-.264v-.53h-.265v.265H.794V.529H.529v.794z"></path><path d="M6.974 4.491a6.919 6.919 0 0 0 .846-2.836L6.705 3.293z"></path></g><!----></svg>