<?xml version="1.0" standalone="no"?>
<!DOCTYPE svg PUBLIC "-//W3C//DTD SVG 20010904//EN"
 "http://www.w3.org/TR/2001/REC-SVG-20010904/DTD/svg10.dtd">
<svg version="1.0" xmlns="http://www.w3.org/2000/svg"
 width="125.000000pt" height="125.000000pt" viewBox="0 0 125.000000 125.000000"
 preserveAspectRatio="xMidYMid meet">
<metadata>
Created by potrace 1.11, written by Peter Selinger 2001-2013
</metadata>
<g transform="translate(0.000000,125.000000) scale(0.100000,-0.100000)"
fill="#000000" stroke="none">
<path d="M56 1203 c-3 -4 -6 -33 -6 -65 l0 -58 229 0 230 0 70 61 c39 33 71
62 71 63 0 1 -40 2 -90 1 -77 0 -90 -2 -90 -16 0 -16 -19 -29 -41 -29 -6 0 -7
9 -4 20 4 11 2 21 -4 22 -38 5 -37 6 -40 -52 -1 -18 -7 -26 -21 -27 -17 -2
-20 4 -20 40 0 36 -3 43 -20 43 -14 0 -20 -7 -20 -21 0 -29 -29 -28 -41 2 -16
42 -48 19 -43 -30 2 -18 -3 -30 -12 -34 -21 -8 -26 1 -28 44 -1 31 -5 38 -21
38 -11 0 -21 -9 -25 -20 -7 -26 -32 -26 -40 0 -5 20 -22 29 -34 18z"/>
<path d="M683 1178 l-22 -21 25 -32 c22 -29 23 -33 8 -46 -14 -11 -19 -10 -36
14 -11 15 -26 27 -33 27 -20 0 -29 -20 -16 -33 6 -6 11 -14 11 -18 0 -13 -33
-19 -46 -8 -15 12 -34 4 -34 -15 0 -7 9 -21 20 -31 22 -20 26 -40 8 -51 -6 -4
-23 5 -38 23 -23 25 -30 28 -44 18 -15 -11 -15 -14 -2 -28 14 -13 14 -16 1
-27 -12 -10 -18 -10 -30 0 -12 10 -18 10 -30 0 -13 -10 -11 -16 10 -45 22 -28
23 -34 10 -45 -12 -10 -19 -7 -41 20 -24 28 -28 30 -43 16 -12 -12 -13 -19 -3
-28 7 -7 12 -15 12 -19 0 -13 -33 -19 -46 -8 -14 12 -34 4 -34 -14 0 -6 11
-23 25 -37 24 -25 24 -26 5 -38 -17 -10 -22 -8 -41 17 -27 37 -53 31 -45 -10
6 -32 -8 -46 -29 -29 -12 10 -18 10 -31 -1 -15 -12 -15 -22 1 -99 2 -8 4 -23
4 -33 1 -21 14 -16 63 28 18 17 67 59 108 95 41 36 77 67 80 70 3 3 39 34 80
70 41 36 77 67 80 70 7 7 164 143 169 147 6 4 -41 123 -48 123 -4 0 -16 -10
-28 -22z"/>
<path d="M886 1005 c-26 -110 -33 -247 -19 -366 11 -97 30 -170 98 -389 15
-47 29 -98 32 -114 15 -91 121 -127 182 -62 54 57 26 158 -49 173 -39 8 -36 8
-67 -2 -20 -5 -23 -3 -23 21 0 15 8 36 17 46 14 16 15 26 5 76 -16 84 -152
685 -155 689 -2 1 -11 -31 -21 -72z m92 -458 c3 -23 0 -27 -21 -27 -32 0 -45
30 -20 47 24 18 37 11 41 -20z m166 -352 c49 -49 7 -126 -59 -109 -29 7 -45
31 -45 68 0 46 71 74 104 41z"/>
<path d="M1157 973 c-19 -27 -57 -83 -86 -125 l-52 -77 16 -68 c30 -133 24
-123 45 -83 28 51 67 156 84 225 15 61 35 175 30 175 -1 0 -18 -21 -37 -47z"/>
<path d="M286 610 c-45 -39 -52 -49 -38 -55 9 -4 61 -22 114 -41 l97 -35 81
37 c64 30 78 40 64 45 -29 11 -32 11 -39 -11 -5 -16 -10 -18 -25 -10 -12 6
-17 16 -13 26 5 14 -11 33 -28 34 -3 0 -11 -18 -18 -39 -9 -32 -15 -38 -32
-34 -14 4 -18 11 -14 22 4 9 9 28 12 44 4 21 2 27 -12 27 -10 0 -23 -7 -30
-17 -15 -21 -35 -9 -35 22 0 40 -26 36 -84 -15z"/>
<path d="M623 510 c-32 -14 -40 -23 -37 -37 3 -11 -1 -25 -10 -32 -12 -10 -17
-9 -25 8 -7 12 -17 18 -26 15 -19 -8 -19 -21 -1 -56 14 -26 13 -29 -4 -38 -17
-9 -22 -5 -35 26 -17 41 -52 45 -48 6 4 -29 -24 -40 -40 -18 -8 10 -19 15 -29
11 -15 -6 -15 -10 -2 -40 18 -43 18 -51 0 -58 -10 -4 -21 7 -32 33 -15 33 -20
37 -36 29 -13 -7 -17 -17 -13 -30 8 -26 -22 -37 -38 -15 -8 11 -19 15 -29 11
-16 -6 -16 -10 -3 -42 19 -46 19 -53 -3 -53 -11 0 -25 14 -35 35 -12 25 -21
33 -32 28 -12 -4 -15 -13 -10 -30 7 -30 -20 -43 -39 -18 -9 12 -18 15 -28 9
-14 -8 -13 -16 11 -65 l26 -57 290 133 c281 130 289 134 288 162 0 15 -1 45
-2 66 -1 42 -1 42 -58 17z"/>
<path d="M802 452 c-37 -57 -40 -66 -30 -93 8 -24 7 -34 -4 -45 -13 -13 -19
-13 -50 6 -54 31 -115 14 -143 -40 -19 -37 -19 -63 1 -101 18 -36 69 -60 109
-53 39 7 35 2 125 120 l82 106 -22 72 c-12 39 -23 76 -24 81 -2 6 -21 -18 -44
-53z m-89 -180 c17 -15 23 -58 9 -79 -12 -19 -55 -31 -79 -22 -26 10 -43 38
-38 65 2 10 4 23 4 27 1 12 64 36 76 30 5 -4 18 -13 28 -21z"/>
</g>
</svg>
